:FULLY-SPECIFIED
:FORCE-ALL-JOINTS-BE-3DOF
:DEGREES
2854
root -6.08962 13.2678 -28.8142 160.714 -66.7124 -158.981
lfemur -65.5853 44.9659 -5.51603
ltibia 77.1535 -0 0
lfoot -4.76825 -6.22618 0.000528843
ltoes -29.2158 0 0
rfemur -31.1805 -19.2164 22.4646
rtibia 88.7728 -0 0
rfoot -41.0915 -28.8338 9.73252e-005
rtoes -13.8547 0 0
lowerback 15.6579 5.61785 1.00616
upperback -4.50742 7.98619 1.66387
thorax -13.9538 3.69447 -0.892522
lowerneck -2.53409 9.633 2.25219
upperneck 9.15621 12.5423 2.02473
head 3.40727 6.3359 0.745991
lclavicle -2.9122e-014 1.19271e-015 0
lhumerus 5.55364 12.2501 84.2214
lradius 93.4329 -0 0
lwrist -19.1822 0 0
lhand -39.4819 28.1632 -9.35645e-005
lfingers 7.12502 -0 0
lthumb -12.4684 57.7716 -8.90618e-005
rclavicle -2.9122e-014 1.19271e-015 0
rhumerus -59.1593 51.0442 -111.602
rradius 113.603 -0 0
rwrist -83.7184 0 0
rhand 8.01486 -25.9703 0.00017139
rfingers 7.12502 -0 0
rthumb 33.2412 -52.9196 0.000204075
2855
root -6.09106 13.2651 -28.8138 160.692 -66.7195 -158.942
lfemur -65.6343 44.9663 -5.52762
ltibia 77.1825 -0 0
lfoot -4.80709 -6.23412 0.000367738
ltoes -29.3387 0 0
rfemur -31.2035 -19.2097 22.4802
rtibia 88.7943 -0 0
rfoot -41.0907 -28.8617 7.78043e-005
rtoes -13.8622 0 0
lowerback 15.6646 5.61336 1.02485
upperback -4.5114 7.98437 1.66421
thorax -13.9599 3.69176 -0.902754
lowerneck -2.53823 9.63207 2.25306
upperneck 9.15896 12.5403 2.03018
head 3.40867 6.33516 0.747842
lclavicle -2.9122e-014 1.19271e-015 0
lhumerus 5.57107 12.2481 84.2114
lradius 93.4214 -0 0
lwrist -19.1903 0 0
lhand -39.4722 28.1331 -5.84411e-005
lfingers 7.12502 -0 0
lthumb -12.459 57.7421 -5.56387e-005
rclavicle -2.9122e-014 1.19271e-015 0
rhumerus -59.1644 51.0543 -111.617
rradius 113.594 -0 0
rwrist -83.6953 0 0
rhand 8.03475 -25.9535 0.000112001
rfingers 7.12502 -0 0
rthumb 33.2601 -52.8989 0.000133788
2856
root -6.09249 13.2623 -28.8135 160.674 -66.7264 -158.907
lfemur -65.682 44.9658 -5.53996
ltibia 77.2113 -0 0
lfoot -4.84654 -6.2375 0.000189984
ltoes -29.4555 0 0
rfemur -31.2276 -19.2023 22.4944
rtibia 88.8166 -0 0
rfoot -41.089 -28.8908 4.57504e-005
rtoes -13.8673 0 0
lowerback 15.6719 5.60947 1.04302
upperback -4.5155 7.98325 1.66439
thorax -13.9665 3.68939 -0.913132
lowerneck -2.54214 9.63098 2.25358
upperneck 9.16155 12.5382 2.03526
head 3.40998 6.33433 0.749602
lclavicle -2.9122e-014 1.19271e-015 0
lhumerus 5.58535 12.249 84.2036
lradius 93.4098 -0 0
lwrist -19.1968 0 0
lhand -39.4631 28.1069 -2.64586e-005
lfingers 7.12502 -0 0
lthumb -12.4502 57.7164 -2.51958e-005
rclavicle -2.9122e-014 1.19271e-015 0
rhumerus -59.1694 51.0641 -111.631
rradius 113.584 -0 0
rwrist -83.6737 0 0
rhand 8.05195 -25.9387 5.40376e-005
rfingers 7.12502 -0 0
rthumb 33.2764 -52.8806 6.48089e-005
2857
root -6.09392 13.2596 -28.8131 1240.66 -66.7331 -158.876
lfemur -65.7282 44.9644 -5.55299
ltibia 77.2399 0 0
lfoot -4.88648 -6.23588 0
ltoes -29.5651 0 0
rfemur -31.2528 -19.1941 22.5069
rtibia 88.84 0 0
rfoot -41.0861 -28.9213 0
rtoes -13.8697 0 0
lowerback 15.6798 5.60624 1.06061
upperback -4.51975 7.98291 1.6644
thorax -13.9738 3.68739 -0.923678
lowerneck -2.54576 9.62974 2.25375
upperneck 9.16399 12.536 2.03988
head 3.41119 6.33341 0.751245
lclavicle -2.9122e-014 1.19271e-015 0
lhumerus 5.59618 12.2531 84.1984
lradius 93.3981 0 0
lwrist -19.2015 0 0
lhand -39.4545 388.085 0
lfingers 7.12502 0 0
lthumb -12.4419 -662.305 0
rclavicle -2.9122e-014 1.19271e-015 0
rhumerus -59.1743 51.0736 -111.643
rradius 113.575 0 0
rwrist -83.6537 0 0
rhand 8.0662 -385.926 0
rfingers 7.12502 0 0
rthumb 33.29 307.135 0
2858
root -6.09418 13.2576 -28.8107 160.649 -66.7401 -158.849
lfemur -65.7741 44.9624 -5.56815
ltibia 77.2684 -0 0
lfoot -4.92824 -6.22942 -0.000190307
ltoes -29.6724 0 0
rfemur -31.2796 -19.185 22.5177
rtibia 88.8646 -0 0
rfoot -41.0814 -28.9542 -5.73881e-005
rtoes -13.8702 0 0
lowerback 15.688 5.60357 1.07802
upperback -4.52421 7.9833 1.66429
thorax -13.9815 3.68572 -0.934498
lowerneck -2.54927 9.62823 2.25342
upperneck 9.16628 12.5335 2.04439
head 3.4123 6.33232 0.752904
lclavicle 4.52421e-014 4.17448e-014 0
lhumerus 5.60349 12.2599 84.1957
lradius 93.3869 -0 0
lwrist -19.2051 0 0
lhand -39.4464 28.0666 2.18187e-005
lfingers 7.12502 -0 0
lthumb -12.4341 57.6771 2.07748e-005
rclavicle 4.52421e-014 4.17448e-014 0
rhumerus -59.1791 51.0831 -111.654
rradius 113.566 -0 0
rwrist -83.6348 0 0
rhand 8.07777 -25.9155 -4.66585e-005
rfingers 7.12502 -0 0
rthumb 33.301 -52.8521 -5.66044e-005
2859
root -6.09444 13.2557 -28.8083 160.642 -66.748 -158.826
lfemur -65.8209 44.9603 -5.58667
ltibia 77.2967 -0 0
lfoot -4.97302 -6.21874 -0.000370029
ltoes -29.7833 0 0
rfemur -31.3085 -19.1749 22.5266
rtibia 88.8904 -0 0
rfoot -41.0742 -28.9903 -0.000121005
rtoes -13.8698 0 0
lowerback 15.696 5.60131 1.09564
upperback -4.52894 7.98428 1.66412
thorax -13.9893 3.6843 -0.94565
lowerneck -2.55287 9.62637 2.25249
upperneck 9.16842 12.5305 2.04915
head 3.4133 6.33099 0.754717
lclavicle 4.52421e-014 4.17448e-014 0
lhumerus 5.60755 12.2684 84.195
lradius 93.3767 -0 0
lwrist -19.2084 0 0
lhand -39.4387 28.0504 4.12806e-005
lfingers 7.12502 -0 0
lthumb -12.4267 57.6613 3.92879e-005
rclavicle 4.52421e-014 4.17448e-014 0
rhumerus -59.184 51.0927 -111.665
rradius 113.557 -0 0
rwrist -83.6163 0 0
rhand 8.0872 -25.9068 -8.40254e-005
rfingers 7.12502 -0 0
rthumb 33.31 -52.8416 -0.000102672
2860
root -6.09469 13.2537 -28.8059 160.638 -66.7565 -158.806
lfemur -65.8682 44.9581 -5.60816
ltibia 77.3248 -0 0
lfoot -5.02052 -6.20417 -0.000535633
ltoes -29.8973 0 0
rfemur -31.3392 -19.1639 22.5339
rtibia 88.9173 -0 0
rfoot -41.0648 -29.029 -0.000186926
rtoes -13.8685 0 0
lowerback 15.7039 5.59942 1.11341
upperback -4.53389 7.9858 1.6639
thorax -13.9973 3.6831 -0.957085
lowerneck -2.55654 9.62419 2.25101
upperneck 9.17039 12.5271 2.05414
head 3.41421 6.32946 0.756665
lclavicle 4.52421e-014 4.17448e-014 0
lhumerus 5.60862 12.2786 84.1963
lradius 93.3675 -0 0
lwrist -19.2114 0 0
lhand -39.4313 28.0362 5.80983e-005
lfingers 7.12502 -0 0
lthumb -12.4195 57.6475 5.52694e-005
rclavicle 4.52421e-014 4.17448e-014 0
rhumerus -59.189 51.1024 -111.675
rradius 113.548 -0 0
rwrist -83.5983 0 0
rhand 8.09462 -25.9 -0.000112198
rfingers 7.12502 -0 0
rthumb 33.317 -52.8332 -0.000138229
2861
root -6.09495 13.2518 -28.8035 160.637 -66.7656 -158.789
lfemur -65.916 44.9558 -5.63223
ltibia 77.3527 -0 0
lfoot -5.07042 -6.18599 -0.000683648
ltoes -30.014 0 0
rfemur -31.3714 -19.1522 22.5397
rtibia 88.9451 -0 0
rfoot -41.0535 -29.0698 -0.000251404
rtoes -13.8661 0 0
lowerback 15.7117 5.59789 1.13126
upperback -4.53903 7.98782 1.66363
thorax -14.0055 3.68211 -0.968753
lowerneck -2.56028 9.62173 2.24903
upperneck 9.17221 12.5233 2.05931
head 3.41503 6.32775 0.758726
lclavicle 4.52421e-014 4.17448e-014 0
lhumerus 5.60695 12.2902 84.1992
lradius 93.3589 -0 0
lwrist -19.2141 0 0
lhand -39.4241 28.0238 7.20779e-005
lfingers 7.12502 -0 0
lthumb -12.4126 57.6355 6.85384e-005
rclavicle 4.52421e-014 4.17448e-014 0
rhumerus -59.1939 51.1121 -111.685
rradius 113.538 -0 0
rwrist -83.5806 0 0
rhand 8.10013 -25.8947 -0.000131546
rfingers 7.12502 -0 0
rthumb 33.3223 -52.8268 -0.000163614
2862
root -6.09521 13.2498 -28.8011 160.639 -66.775 -158.775
lfemur -65.9641 44.9534 -5.65851
ltibia 77.3802 -0 0
lfoot -5.12243 -6.1645 -0.000810839
ltoes -30.1329 0 0
rfemur -31.4051 -19.1396 22.5441
rtibia 88.9737 -0 0
rfoot -41.0406 -29.1124 -0.000311008
rtoes -13.8627 0 0
lowerback 15.7193 5.59668 1.1491
upperback -4.54433 7.99027 1.6633
thorax -14.0137 3.68132 -0.980603
lowerneck -2.56407 9.61902 2.24661
upperneck 9.17386 12.5192 2.06461
head 3.41575 6.32587 0.760883
lclavicle 4.52421e-014 4.17448e-014 0
lhumerus 5.60278 12.3032 84.2036
lradius 93.3509 -0 0
lwrist -19.2165 0 0
lhand -39.4171 28.013 8.31099e-005
lfingers 7.12502 -0 0
lthumb -12.4059 57.6251 7.8994e-005
rclavicle 4.52421e-014 4.17448e-014 0
rhumerus -59.1987 51.1219 -111.694
rradius 113.529 -0 0
rwrist -83.5635 0 0
rhand 8.10387 -25.8907 -0.000142663
rfingers 7.12502 -0 0
rthumb 33.3258 -52.8221 -0.000179424
2863
root -6.09547 13.2479 -28.7988 160.643 -66.7847 -158.763
lfemur -66.012 44.9509 -5.68659
ltibia 77.4074 -0 0
lfoot -5.17623 -6.14003 -0.000914353
ltoes -30.2537 0 0
rfemur -31.44 -19.1265 22.5472
rtibia 89.0029 -0 0
rfoot -41.0264 -29.1563 -0.000362737
rtoes -13.8581 0 0
lowerback 15.727 5.59577 1.16688
upperback -4.54975 7.99312 1.66291
thorax -14.0221 3.6807 -0.992587
lowerneck -2.5679 9.61609 2.24378
upperneck 9.17533 12.5149 2.07
head 3.41638 6.32385 0.763114
lclavicle 4.52421e-014 4.17448e-014 0
lhumerus 5.59637 12.3175 84.2092
lradius 93.3434 -0 0
lwrist -19.2186 0 0
lhand -39.4104 28.0037 9.11603e-005
lfingers 7.12502 -0 0
lthumb -12.3993 57.6162 8.66069e-005
rclavicle 4.52421e-014 4.17448e-014 0
rhumerus -59.2035 51.1316 -111.703
rradius 113.519 -0 0
rwrist -83.5468 0 0
rhand 8.10596 -25.888 -0.00014632
rfingers 7.12502 -0 0
rthumb 33.3278 -52.8189 -0.000186464
